<svg width="44" height="45" viewBox="0 0 44 45" fill="none" xmlns="http://www.w3.org/2000/svg">
<path d="M40.4507 1.96094L31.6421 4.52273L35.2085 2.10875C32.957 2.6175 30.1124 3.61266 26.5374 5.21883L20.7023 11.3023L22.7734 7.05273C20.771 8.16648 18.6484 9.62656 16.603 11.3367L15.2452 16.8625L14.953 12.7719C12.9335 14.6281 11.0343 16.6906 9.46164 18.8648C7.80906 21.1422 6.51742 23.5484 5.87031 25.9461L3.45375 24.3305C3.67031 26.3672 4.33977 28.1375 5.43805 29.7617L2.54883 28.8766C3.20539 30.8961 4.27875 32.2023 6.09375 33.2594C5.07711 36.1211 4.60016 39.1117 4.08797 42.0938L5.66922 42.3602C7.50313 24.0813 20.4445 12.4281 32.1405 7.265L32.7335 8.75859C22.2749 13.4422 14.1452 21.3484 9.89133 32.7438C11.4468 32.7523 12.9679 32.5633 14.3773 32.2023L14.7984 26.9688L15.9241 31.7383C16.8609 31.3945 17.7202 30.982 18.4851 30.5008L16.7062 26.7625L19.5249 29.7531C20.2124 29.2031 20.7796 28.5844 21.2093 27.9055C23.8218 23.8234 26.5546 19.7672 31.9343 16.3727L28.007 14.9805L34.0312 15.1609C35.0109 14.6625 36.0421 14.0523 36.8241 13.4766L32.553 13.1328L38.9726 11.6203C39.471 11.1219 39.9351 10.5977 40.3562 10.0734C41.8429 8.18797 42.8484 6.22516 42.6077 4.44023C42.496 3.54734 41.9632 2.70773 41.0952 2.23766C40.8804 2.12594 40.6484 2.02711 40.4507 1.96094Z" fill="#DDBC82"/>
</svg>
