<svg width="24" height="25" viewBox="0 0 24 25" fill="none" xmlns="http://www.w3.org/2000/svg">
<path d="M19.868 2.97559H4.13203C3.3 2.97559 2.625 3.65059 2.625 4.48262V20.2186C2.625 21.0506 3.3 21.7256 4.13203 21.7256H19.868C20.7 21.7256 21.375 21.0506 21.375 20.2186V4.48262C21.375 3.65059 20.7 2.97559 19.868 2.97559ZM19.868 20.2256C9.37266 20.2232 4.125 20.2209 4.125 20.2186C4.12734 9.72324 4.12969 4.47559 4.13203 4.47559C14.6273 4.47793 19.875 4.48027 19.875 4.48262C19.8727 14.9779 19.8703 20.2256 19.868 20.2256ZM5.40469 10.0045H8.18672V18.9529H5.40469V10.0045ZM6.79688 8.78105C7.68516 8.78105 8.40937 8.05918 8.40937 7.16855C8.40937 6.9568 8.36767 6.74712 8.28663 6.55148C8.2056 6.35584 8.08682 6.17808 7.93709 6.02835C7.78735 5.87861 7.60959 5.75983 7.41395 5.6788C7.21831 5.59776 7.00863 5.55605 6.79688 5.55605C6.58512 5.55605 6.37544 5.59776 6.1798 5.6788C5.98416 5.75983 5.8064 5.87861 5.65667 6.02835C5.50693 6.17808 5.38815 6.35584 5.30712 6.55148C5.22608 6.74712 5.18437 6.9568 5.18437 7.16855C5.18203 8.05918 5.90391 8.78105 6.79688 8.78105ZM12.7102 14.5256C12.7102 13.3584 12.9328 12.2287 14.3789 12.2287C15.8039 12.2287 15.825 13.5623 15.825 14.6006V18.9529H18.6047V14.0451C18.6047 11.6357 18.0844 9.78184 15.2695 9.78184C13.9172 9.78184 13.0102 10.5248 12.6375 11.2279H12.6V10.0045H9.93047V18.9529H12.7102V14.5256Z" fill="#B18231"/>
</svg>
