<svg width="36" height="37" viewBox="0 0 36 37" fill="none" xmlns="http://www.w3.org/2000/svg">
<path d="M21.375 15.9922C21.375 15.0971 21.0194 14.2386 20.3865 13.6057C19.7536 12.9728 18.8951 12.6172 18 12.6172C17.1049 12.6172 16.2464 12.9728 15.6135 13.6057C14.9806 14.2386 14.625 15.0971 14.625 15.9922C14.625 16.8873 14.9806 17.7457 15.6135 18.3787C16.2464 19.0116 17.1049 19.3672 18 19.3672C18.8951 19.3672 19.7536 19.0116 20.3865 18.3787C21.0194 17.7457 21.375 16.8873 21.375 15.9922ZM31.5 15.9922C31.5 22.4587 24.5318 29.5282 20.6077 32.9977C19.8903 33.6384 18.962 33.9926 18 33.9926C17.038 33.9926 16.1097 33.6384 15.3923 32.9977C11.4683 29.5282 4.5 22.4587 4.5 15.9922C4.5 14.2193 4.84919 12.4639 5.52763 10.826C6.20606 9.18807 7.20047 7.69984 8.45406 6.44625C9.70765 5.19266 11.1959 4.19825 12.8338 3.51981C14.4717 2.84138 16.2272 2.49219 18 2.49219C19.7728 2.49219 21.5283 2.84138 23.1662 3.51981C24.8041 4.19825 26.2924 5.19266 27.5459 6.44625C28.7995 7.69984 29.7939 9.18807 30.4724 10.826C31.1508 12.4639 31.5 14.2193 31.5 15.9922ZM29.25 15.9922C29.25 13.0085 28.0647 10.147 25.955 8.03724C23.8452 5.92745 20.9837 4.74219 18 4.74219C15.0163 4.74219 12.1548 5.92745 10.045 8.03724C7.93526 10.147 6.75 13.0085 6.75 15.9922C6.75 18.4852 8.13375 21.3809 10.2825 24.2789C12.384 27.1094 14.9782 29.6272 16.8817 31.3124C17.188 31.5901 17.5866 31.7438 18 31.7438C18.4134 31.7438 18.812 31.5901 19.1182 31.3124C21.0217 29.6272 23.6182 27.1117 25.7175 24.2789C27.8663 21.3809 29.25 18.4852 29.25 15.9922Z" fill="#DDBC82"/>
</svg>
