<svg width="24" height="25" viewBox="0 0 24 25" fill="none" xmlns="http://www.w3.org/2000/svg">
<g clip-path="url(#clip0_1696_1026)">
<path d="M12 4.35059C12.855 4.35059 13.732 4.37259 14.582 4.40859L15.586 4.45659L16.547 4.51359L17.447 4.57459L18.269 4.63859C19.1612 4.70648 20.0008 5.08702 20.64 5.71319C21.2791 6.33936 21.6768 7.17098 21.763 8.06159L21.803 8.48659L21.878 9.39659C21.948 10.3396 22 11.3676 22 12.3506C22 13.3336 21.948 14.3616 21.878 15.3046L21.803 16.2146L21.763 16.6396C21.6768 17.5303 21.2789 18.3621 20.6396 18.9883C20.0002 19.6145 19.1604 19.9949 18.268 20.0626L17.448 20.1256L16.548 20.1876L15.586 20.2446L14.582 20.2926C13.7218 20.3298 12.861 20.3492 12 20.3506C11.139 20.3492 10.2782 20.3298 9.418 20.2926L8.414 20.2446L7.453 20.1876L6.553 20.1256L5.731 20.0626C4.83881 19.9947 3.9992 19.6142 3.36004 18.988C2.72089 18.3618 2.32319 17.5302 2.237 16.6396L2.197 16.2146L2.122 15.3046C2.04583 14.3217 2.00514 13.3364 2 12.3506C2 11.3676 2.052 10.3396 2.122 9.39659L2.197 8.48659L2.237 8.06159C2.32316 7.17114 2.72071 6.33964 3.35966 5.71349C3.99861 5.08734 4.83799 4.7067 5.73 4.63859L6.551 4.57459L7.451 4.51359L8.413 4.45659L9.417 4.40859C10.2775 4.37131 11.1387 4.35198 12 4.35059ZM12 6.35059C11.175 6.35059 10.326 6.37259 9.5 6.40659L8.522 6.45359L7.583 6.50859L6.701 6.56859L5.893 6.63159C5.46819 6.66133 5.06769 6.84071 4.76266 7.13787C4.45763 7.43502 4.26784 7.8307 4.227 8.25459C4.11 9.46359 4 10.9686 4 12.3506C4 13.7326 4.11 15.2376 4.227 16.4466C4.312 17.3186 5.004 17.9966 5.893 18.0696L6.701 18.1316L7.583 18.1916L8.522 18.2476L9.5 18.2946C10.326 18.3286 11.175 18.3506 12 18.3506C12.825 18.3506 13.674 18.3286 14.5 18.2946L15.478 18.2476L16.417 18.1926L17.299 18.1326L18.107 18.0696C18.5318 18.0398 18.9323 17.8605 19.2373 17.5633C19.5424 17.2661 19.7322 16.8705 19.773 16.4466C19.89 15.2376 20 13.7326 20 12.3506C20 10.9686 19.89 9.46359 19.773 8.25459C19.7322 7.8307 19.5424 7.43502 19.2373 7.13787C18.9323 6.84071 18.5318 6.66133 18.107 6.63159L17.299 6.56959L16.417 6.50959L15.478 6.45359L14.5 6.40659C13.6671 6.37084 12.8336 6.35217 12 6.35059ZM10 9.92559C9.99994 9.82785 10.0237 9.73158 10.0694 9.64514C10.115 9.5587 10.181 9.48472 10.2618 9.42962C10.3425 9.37452 10.4354 9.33998 10.5326 9.32899C10.6297 9.31801 10.728 9.33091 10.819 9.36659L10.9 9.40659L15.1 11.8306C15.1836 11.8788 15.2544 11.9466 15.3063 12.028C15.3581 12.1095 15.3896 12.2022 15.3979 12.2984C15.4062 12.3946 15.3912 12.4914 15.3542 12.5806C15.3171 12.6697 15.2591 12.7486 15.185 12.8106L15.1 12.8706L10.9 15.2956C10.8154 15.3446 10.72 15.3722 10.6223 15.3759C10.5246 15.3797 10.4274 15.3595 10.3393 15.3171C10.2511 15.2747 10.1747 15.2114 10.1166 15.1327C10.0585 15.054 10.0205 14.9623 10.006 14.8656L10 14.7756V9.92559Z" fill="#B18231"/>
</g>
<defs>
<clipPath id="clip0_1696_1026">
<rect width="24" height="24" fill="white" transform="translate(0 0.350586)"/>
</clipPath>
</defs>
</svg>
