<svg width="56" height="57" viewBox="0 0 56 57" fill="none" xmlns="http://www.w3.org/2000/svg">
<path d="M17.9375 3.80371C16.4291 3.80371 14.9824 4.40293 13.9158 5.46954C12.8492 6.53615 12.25 7.98279 12.25 9.49121V47.1162C12.25 48.6246 12.8492 50.0713 13.9158 51.1379C14.9824 52.2045 16.4291 52.8037 17.9375 52.8037H38.0625C39.5709 52.8037 41.0176 52.2045 42.0842 51.1379C43.1508 50.0713 43.75 48.6246 43.75 47.1162V9.49121C43.75 7.98279 43.1508 6.53615 42.0842 5.46954C41.0176 4.40293 39.5709 3.80371 38.0625 3.80371H17.9375ZM15.75 9.49121C15.75 8.28371 16.73 7.30371 17.9375 7.30371H38.0625C39.27 7.30371 40.25 8.28371 40.25 9.49121V47.1162C40.25 48.3237 39.27 49.3037 38.0625 49.3037H17.9375C16.73 49.3037 15.75 48.3237 15.75 47.1162V9.49121ZM24.5 42.3037C24.0359 42.3037 23.5908 42.4881 23.2626 42.8163C22.9344 43.1445 22.75 43.5896 22.75 44.0537C22.75 44.5178 22.9344 44.963 23.2626 45.2911C23.5908 45.6193 24.0359 45.8037 24.5 45.8037H31.5C31.9641 45.8037 32.4093 45.6193 32.7374 45.2911C33.0656 44.963 33.25 44.5178 33.25 44.0537C33.25 43.5896 33.0656 43.1445 32.7374 42.8163C32.4093 42.4881 31.9641 42.3037 31.5 42.3037H24.5Z" fill="#DDBC82"/>
</svg>
