<svg width="11" height="19" viewBox="0 0 11 19" fill="none" xmlns="http://www.w3.org/2000/svg">
<path d="M9.92995 8.76101L1.57045 0.79601C1.43096 0.663043 1.24565 0.588867 1.05295 0.588867C0.860241 0.588867 0.674931 0.663043 0.535448 0.79601L0.526447 0.80501C0.458594 0.86947 0.404565 0.94706 0.367644 1.03306C0.330724 1.11906 0.311685 1.21167 0.311685 1.30526C0.311685 1.39885 0.330724 1.49146 0.367644 1.57746C0.404565 1.66346 0.458594 1.74105 0.526447 1.80551L8.39845 9.30551L0.526447 16.8025C0.458594 16.867 0.404565 16.9446 0.367644 17.0306C0.330724 17.1166 0.311685 17.2092 0.311685 17.3028C0.311685 17.3963 0.330724 17.489 0.367644 17.575C0.404565 17.661 0.458594 17.7385 0.526447 17.803L0.535448 17.812C0.674931 17.945 0.860241 18.0192 1.05295 18.0192C1.24565 18.0192 1.43096 17.945 1.57045 17.812L9.92995 9.84701C10.0035 9.77696 10.062 9.69272 10.102 9.59938C10.142 9.50604 10.1626 9.40555 10.1626 9.30401C10.1626 9.20247 10.142 9.10198 10.102 9.00864C10.062 8.9153 10.0035 8.83105 9.92995 8.76101Z" fill="black"/>
</svg>
