<svg width="24" height="25" viewBox="0 0 24 25" fill="none" xmlns="http://www.w3.org/2000/svg">
<path d="M7.8 2.35059H16.2C19.4 2.35059 22 4.95059 22 8.15059V16.5506C22 18.0888 21.3889 19.5641 20.3012 20.6518C19.2135 21.7395 17.7383 22.3506 16.2 22.3506H7.8C4.6 22.3506 2 19.7506 2 16.5506V8.15059C2 6.61233 2.61107 5.13708 3.69878 4.04937C4.78649 2.96166 6.26174 2.35059 7.8 2.35059ZM7.6 4.35059C6.64522 4.35059 5.72955 4.72987 5.05442 5.405C4.37928 6.08013 4 6.99581 4 7.95059V16.7506C4 18.7406 5.61 20.3506 7.6 20.3506H16.4C17.3548 20.3506 18.2705 19.9713 18.9456 19.2962C19.6207 18.621 20 17.7054 20 16.7506V7.95059C20 5.96059 18.39 4.35059 16.4 4.35059H7.6ZM17.25 5.85059C17.5815 5.85059 17.8995 5.98228 18.1339 6.2167C18.3683 6.45112 18.5 6.76907 18.5 7.10059C18.5 7.43211 18.3683 7.75005 18.1339 7.98447C17.8995 8.21889 17.5815 8.35059 17.25 8.35059C16.9185 8.35059 16.6005 8.21889 16.3661 7.98447C16.1317 7.75005 16 7.43211 16 7.10059C16 6.76907 16.1317 6.45112 16.3661 6.2167C16.6005 5.98228 16.9185 5.85059 17.25 5.85059ZM12 7.35059C13.3261 7.35059 14.5979 7.87737 15.5355 8.81505C16.4732 9.75273 17 11.0245 17 12.3506C17 13.6767 16.4732 14.9484 15.5355 15.8861C14.5979 16.8238 13.3261 17.3506 12 17.3506C10.6739 17.3506 9.40215 16.8238 8.46447 15.8861C7.52678 14.9484 7 13.6767 7 12.3506C7 11.0245 7.52678 9.75273 8.46447 8.81505C9.40215 7.87737 10.6739 7.35059 12 7.35059ZM12 9.35059C11.2044 9.35059 10.4413 9.66666 9.87868 10.2293C9.31607 10.7919 9 11.5549 9 12.3506C9 13.1462 9.31607 13.9093 9.87868 14.4719C10.4413 15.0345 11.2044 15.3506 12 15.3506C12.7956 15.3506 13.5587 15.0345 14.1213 14.4719C14.6839 13.9093 15 13.1462 15 12.3506C15 11.5549 14.6839 10.7919 14.1213 10.2293C13.5587 9.66666 12.7956 9.35059 12 9.35059Z" fill="#B18231"/>
</svg>
