<svg width="10" height="18" viewBox="0 0 10 18" fill="none" xmlns="http://www.w3.org/2000/svg">
<path d="M0.38182 9.5427L8.74132 17.5077C8.8808 17.6407 9.06611 17.7148 9.25882 17.7148C9.45153 17.7148 9.63684 17.6407 9.77632 17.5077L9.78532 17.4987C9.85317 17.4342 9.9072 17.3567 9.94412 17.2707C9.98104 17.1847 10.0001 17.092 10.0001 16.9985C10.0001 16.9049 9.98104 16.8122 9.94412 16.7262C9.9072 16.6403 9.85317 16.5627 9.78532 16.4982L1.91332 8.9982L9.78532 1.5012C9.85317 1.43674 9.9072 1.35915 9.94412 1.27315C9.98104 1.18715 10.0001 1.09454 10.0001 1.00095C10.0001 0.907362 9.98104 0.814751 9.94412 0.728752C9.9072 0.642752 9.85317 0.565163 9.78532 0.500702L9.77632 0.491701C9.63684 0.358734 9.45153 0.284557 9.25882 0.284557C9.06611 0.284557 8.8808 0.358734 8.74132 0.491701L0.38182 8.4567C0.308302 8.52675 0.249773 8.61099 0.209782 8.70433C0.169791 8.79767 0.14917 8.89816 0.14917 8.9997C0.14917 9.10125 0.169791 9.20173 0.209782 9.29507C0.249773 9.38841 0.308302 9.47266 0.38182 9.5427Z" fill="#DDBC82"/>
</svg>
