<svg width="24" height="25" viewBox="0 0 24 25" fill="none" xmlns="http://www.w3.org/2000/svg">
<g clip-path="url(#clip0_1519_372)">
<path fill-rule="evenodd" clip-rule="evenodd" d="M4 12.3506C4.00014 10.811 4.44451 9.30423 5.27979 8.01097C6.11506 6.71771 7.30576 5.69293 8.70901 5.0596C10.1123 4.42627 11.6684 4.21129 13.1908 4.44046C14.7132 4.66963 16.1372 5.33321 17.2918 6.35158C18.4464 7.36995 19.2826 8.69985 19.7002 10.1817C20.1177 11.6635 20.0988 13.2344 19.6457 14.7058C19.1926 16.1771 18.3246 17.4865 17.1458 18.4768C15.967 19.467 14.5275 20.0961 13 20.2886V14.3506H15C15.2652 14.3506 15.5196 14.2452 15.7071 14.0577C15.8946 13.8702 16 13.6158 16 13.3506C16 13.0854 15.8946 12.831 15.7071 12.6435C15.5196 12.4559 15.2652 12.3506 15 12.3506H13V10.3506C13 10.0854 13.1054 9.83102 13.2929 9.64348C13.4804 9.45594 13.7348 9.35059 14 9.35059H14.5C14.7652 9.35059 15.0196 9.24523 15.2071 9.05769C15.3946 8.87016 15.5 8.6158 15.5 8.35059C15.5 8.08537 15.3946 7.83102 15.2071 7.64348C15.0196 7.45594 14.7652 7.35059 14.5 7.35059H14C13.2044 7.35059 12.4413 7.66666 11.8787 8.22927C11.3161 8.79187 11 9.55494 11 10.3506V12.3506H9C8.73478 12.3506 8.48043 12.4559 8.29289 12.6435C8.10536 12.831 8 13.0854 8 13.3506C8 13.6158 8.10536 13.8702 8.29289 14.0577C8.48043 14.2452 8.73478 14.3506 9 14.3506H11V20.2886C9.0667 20.0448 7.28882 19.1039 6 17.6423C4.71119 16.1808 4.00003 14.2992 4 12.3506ZM12 22.3506C17.523 22.3506 22 17.8736 22 12.3506C22 6.82759 17.523 2.35059 12 2.35059C6.477 2.35059 2 6.82759 2 12.3506C2 17.8736 6.477 22.3506 12 22.3506Z" fill="#B18231"/>
</g>
<defs>
<clipPath id="clip0_1519_372">
<rect width="24" height="24" fill="white" transform="translate(0 0.350586)"/>
</clipPath>
</defs>
</svg>
