<svg width="10" height="18" viewBox="0 0 10 18" fill="none" xmlns="http://www.w3.org/2000/svg">
<path d="M9.61842 8.41433L1.25892 0.449331C1.11944 0.316363 0.93413 0.242187 0.741424 0.242188C0.548717 0.242188 0.363407 0.316363 0.223925 0.449331L0.214924 0.458331C0.147071 0.52279 0.0930414 0.60038 0.0561209 0.68638C0.0192003 0.772379 0.000161171 0.864991 0.000161171 0.95858C0.000161171 1.05217 0.0192003 1.14478 0.0561209 1.23078C0.0930414 1.31678 0.147071 1.39437 0.214924 1.45883L8.08692 8.95883L0.214924 16.4558C0.147071 16.5203 0.0930414 16.5979 0.0561209 16.6839C0.0192003 16.7699 0.000161171 16.8625 0.000161171 16.9561C0.000161171 17.0497 0.0192003 17.1423 0.0561209 17.2283C0.0930414 17.3143 0.147071 17.3919 0.214924 17.4563L0.223925 17.4653C0.363407 17.5983 0.548717 17.6725 0.741424 17.6725C0.93413 17.6725 1.11944 17.5983 1.25892 17.4653L9.61842 9.50033C9.69194 9.43028 9.75047 9.34604 9.79046 9.2527C9.83045 9.15936 9.85107 9.05887 9.85107 8.95733C9.85107 8.85579 9.83045 8.7553 9.79046 8.66196C9.75047 8.56862 9.69194 8.48438 9.61842 8.41433Z" fill="#DDBC82"/>
</svg>
