<svg width="24" height="25" viewBox="0 0 24 25" fill="none" xmlns="http://www.w3.org/2000/svg">
<g clip-path="url(#clip0_1696_1022)">
<path fill-rule="evenodd" clip-rule="evenodd" d="M21.8398 6.407C21.8834 6.14232 21.8552 5.87078 21.7582 5.62068C21.6612 5.37058 21.4989 5.15107 21.2883 4.98502C21.0776 4.81896 20.8262 4.71245 20.5604 4.67657C20.2945 4.64068 20.0239 4.67675 19.7768 4.781L2.67678 11.981C1.48478 12.483 1.42378 14.207 2.67678 14.727C3.91767 15.244 5.17646 15.717 6.45078 16.145C7.61878 16.531 8.89278 16.888 9.91378 16.989C10.1928 17.323 10.5438 17.645 10.9018 17.939C11.4488 18.389 12.1068 18.852 12.7868 19.296C14.1488 20.186 15.6598 21.037 16.6778 21.591C17.8948 22.251 19.3518 21.491 19.5698 20.164L21.8398 6.407ZM4.59378 13.344L19.7178 6.976L17.5998 19.816C16.6008 19.273 15.1618 18.46 13.8798 17.622C13.2889 17.2426 12.7185 16.8324 12.1708 16.393C12.0244 16.2734 11.8823 16.1487 11.7448 16.019L15.7058 12.059C15.8934 11.8715 15.9989 11.6171 15.999 11.3519C15.9991 11.0866 15.8938 10.8321 15.7063 10.6445C15.5188 10.4569 15.2644 10.3514 14.9991 10.3513C14.7339 10.3512 14.4794 10.4565 14.2918 10.644L9.95478 14.981C9.22078 14.887 8.19878 14.615 7.07678 14.245C6.2415 13.9667 5.41386 13.6659 4.59478 13.343L4.59378 13.344Z" fill="#B18231"/>
</g>
<defs>
<clipPath id="clip0_1696_1022">
<rect width="24" height="24" fill="white" transform="translate(0 0.350586)"/>
</clipPath>
</defs>
</svg>
