<svg width="10" height="18" viewBox="0 0 10 18" fill="none" xmlns="http://www.w3.org/2000/svg">
<path d="M9.61794 8.4573L1.25844 0.492299C1.11895 0.359332 0.933641 0.285156 0.740935 0.285156C0.548229 0.285156 0.362919 0.359332 0.223436 0.492299L0.214436 0.501299C0.146583 0.565759 0.0925531 0.643349 0.0556326 0.729348C0.018712 0.815348 -0.00032711 0.907959 -0.00032711 1.00155C-0.00032711 1.09514 0.018712 1.18775 0.0556326 1.27375C0.0925531 1.35975 0.146583 1.43734 0.214436 1.5018L8.08644 9.0018L0.214436 16.4988C0.146583 16.5633 0.0925531 16.6408 0.0556326 16.7268C0.018712 16.8128 -0.00032711 16.9055 -0.00032711 16.999C-0.00032711 17.0926 0.018712 17.1852 0.0556326 17.2712C0.0925531 17.3572 0.146583 17.4348 0.214436 17.4993L0.223436 17.5083C0.362919 17.6413 0.548229 17.7154 0.740935 17.7154C0.933641 17.7154 1.11895 17.6413 1.25844 17.5083L9.61794 9.5433C9.69145 9.47325 9.74998 9.38901 9.78997 9.29567C9.82996 9.20233 9.85059 9.10184 9.85059 9.0003C9.85059 8.89875 9.82996 8.79827 9.78997 8.70493C9.74998 8.61159 9.69145 8.52734 9.61794 8.4573Z" fill="#DDBC82"/>
</svg>
