<svg width="56" height="57" viewBox="0 0 56 57" fill="none" xmlns="http://www.w3.org/2000/svg">
<path d="M33.25 24.8037C33.25 23.4113 32.6969 22.076 31.7123 21.0914C30.7277 20.1068 29.3924 19.5537 28 19.5537C26.6076 19.5537 25.2723 20.1068 24.2877 21.0914C23.3031 22.076 22.75 23.4113 22.75 24.8037C22.75 26.1961 23.3031 27.5315 24.2877 28.516C25.2723 29.5006 26.6076 30.0537 28 30.0537C29.3924 30.0537 30.7277 29.5006 31.7123 28.516C32.6969 27.5315 33.25 26.1961 33.25 24.8037ZM49 24.8037C49 34.8627 38.1605 45.8597 32.0565 51.2567C30.9404 52.2534 29.4964 52.8044 28 52.8044C26.5036 52.8044 25.0596 52.2534 23.9435 51.2567C17.8395 45.8597 7 34.8627 7 24.8037C7 22.046 7.54318 19.3152 8.59853 16.7674C9.65388 14.2195 11.2007 11.9045 13.1508 9.95447C15.1008 8.00444 17.4158 6.45759 19.9636 5.40224C22.5115 4.34689 25.2422 3.80371 28 3.80371C30.7578 3.80371 33.4885 4.34689 36.0364 5.40224C38.5842 6.45759 40.8992 8.00444 42.8492 9.95447C44.7993 11.9045 46.3461 14.2195 47.4015 16.7674C48.4568 19.3152 49 22.046 49 24.8037ZM45.5 24.8037C45.5 20.1624 43.6563 15.7112 40.3744 12.4293C37.0925 9.14746 32.6413 7.30371 28 7.30371C23.3587 7.30371 18.9075 9.14746 15.6256 12.4293C12.3437 15.7112 10.5 20.1624 10.5 24.8037C10.5 28.6817 12.6525 33.1862 15.995 37.6942C19.264 42.0972 23.2995 46.0137 26.2605 48.6352C26.7369 49.0671 27.357 49.3063 28 49.3063C28.643 49.3063 29.2631 49.0671 29.7395 48.6352C32.7005 46.0137 36.7395 42.1007 40.005 37.6942C43.3475 33.1862 45.5 28.6817 45.5 24.8037Z" fill="#DDBC82"/>
</svg>
