<svg width="13" height="11" viewBox="0 0 13 11" fill="none" xmlns="http://www.w3.org/2000/svg">
<path d="M4.86 0.448242L5.076 1.02424C3.528 1.63624 1.62 3.04024 1.62 4.62424C1.62 5.77624 2.556 5.95624 3.528 6.10024C5.004 6.31624 5.58 7.36024 5.58 8.26024C5.58 9.37624 4.71599 10.3482 3.34799 10.3482C1.69199 10.3482 0 8.98024 0 6.38824C0 3.00424 2.664 1.09624 4.86 0.448242ZM11.628 0.448242L11.844 1.02424C10.296 1.63624 8.388 3.04024 8.388 4.62424C8.388 5.77624 9.32399 5.95624 10.296 6.10024C11.772 6.31624 12.348 7.36024 12.348 8.26024C12.348 9.37624 11.484 10.3482 10.116 10.3482C8.46 10.3482 6.76799 8.98024 6.76799 6.38824C6.76799 3.00424 9.43199 1.09624 11.628 0.448242Z" fill="#303030"/>
</svg>
