<svg width="273" height="57" viewBox="0 0 273 57" fill="none" xmlns="http://www.w3.org/2000/svg">
<path d="M10.818 37.972C9.46465 37.972 8.03398 37.7593 6.52598 37.334C5.05665 36.9473 3.74198 36.29 2.58198 35.362C1.46065 34.434 0.706646 33.1966 0.31998 31.65C0.281313 31.4566 0.242646 31.244 0.203979 31.012C0.203979 30.78 0.203979 30.548 0.203979 30.316C0.203979 29.1173 0.474646 27.9573 1.01598 26.836C1.55731 25.7146 2.21465 24.864 2.98798 24.284H3.04598C3.12331 24.284 3.21998 24.3806 3.33598 24.574C3.49065 24.7286 3.49065 24.8446 3.33598 24.922C2.94931 25.3086 2.65931 25.7533 2.46598 26.256C2.31131 26.72 2.23398 27.2226 2.23398 27.764C2.23398 28.4986 2.34998 29.2526 2.58198 30.026C2.85265 30.7606 3.18131 31.3986 3.56798 31.94C4.53465 33.2933 5.86865 34.376 7.56998 35.188C9.30998 35.9613 11.0113 36.348 12.674 36.348C14.9553 36.348 16.7146 35.6713 17.952 34.318C19.228 32.9646 19.866 31.302 19.866 29.33C19.866 28.1313 19.634 26.9326 19.17 25.734C18.5513 24.0713 17.72 22.4473 16.676 20.862C15.6706 19.238 14.7426 17.6526 13.892 16.106C13.1573 14.714 12.79 13.3026 12.79 11.872C12.79 10.364 13.254 8.91396 14.182 7.52196C15.11 6.28462 16.328 5.29862 17.836 4.56395C19.3826 3.79062 20.9486 3.40395 22.534 3.40395C23.6166 3.40395 24.6606 3.59729 25.666 3.98395C26.6713 4.37062 27.58 5.00862 28.392 5.89795C28.624 6.24595 28.74 6.69062 28.74 7.23196C28.74 8.00529 28.5853 8.60462 28.276 9.02995C27.928 9.53262 27.5413 10.19 27.116 11.002C26.6906 11.814 26.4393 12.3746 26.362 12.684C26.2846 12.7226 26.0913 12.8 25.782 12.916C25.5113 12.9933 25.3373 12.974 25.26 12.858C25.4146 12.5486 25.6273 11.988 25.898 11.176C26.1686 10.364 26.304 9.62929 26.304 8.97196C26.304 8.54662 26.2846 8.08262 26.246 7.57996C26.246 7.03862 25.9946 6.57462 25.492 6.18796C25.028 5.76262 24.4286 5.39529 23.694 5.08595C22.9593 4.77662 22.07 4.62196 21.026 4.62196C18.8993 4.62196 17.2753 5.24062 16.154 6.47796C15.0326 7.71529 14.472 9.06862 14.472 10.538C14.472 11.2726 14.6266 12.0073 14.936 12.742C15.516 14.134 16.328 15.4486 17.372 16.686C18.416 17.9233 19.4406 19.1993 20.446 20.514C21.49 21.79 22.302 23.182 22.882 24.69C23.2686 25.6953 23.462 26.72 23.462 27.764C23.462 29.272 23.0753 30.6446 22.302 31.882C21.5673 33.1193 20.562 34.202 19.286 35.13C18.0486 36.0193 16.6953 36.7153 15.226 37.218C13.7566 37.7206 12.2873 37.972 10.818 37.972Z" fill="#724F12"/>
<path d="M27.0679 36.116C26.4493 36.116 25.8886 36 25.3859 35.768C24.9219 35.4973 24.6899 34.9366 24.6899 34.086C24.6899 32.7326 25.0379 31.3793 25.7339 30.026C26.4299 28.634 27.1453 27.416 27.8799 26.372C28.5373 25.4826 29.2719 24.6513 30.0839 23.878C30.9346 23.066 31.8433 22.37 32.8099 21.79C33.4286 21.4033 34.2599 20.9973 35.3039 20.572C36.3866 20.108 37.2953 19.876 38.0299 19.876C38.6486 19.876 39.1899 20.05 39.6539 20.398C40.1179 20.7073 40.3499 21.2873 40.3499 22.138C40.3499 23.4526 40.002 24.806 39.306 26.198C38.6486 27.5513 37.9526 28.75 37.2179 29.794C36.8699 30.258 36.5219 30.7026 36.174 31.128C35.826 31.5146 35.4393 31.9206 35.014 32.346C36.4446 32.346 37.7593 31.94 38.958 31.128C40.1566 30.2773 41.2006 29.2526 42.09 28.054L42.2059 27.938C42.3219 27.938 42.3799 28.054 42.3799 28.286C42.3799 28.5566 42.3026 28.808 42.1479 29.04C41.3746 30.1226 40.4079 31.0893 39.2479 31.94C38.0879 32.752 36.7733 33.158 35.3039 33.158C35.1493 33.158 34.9946 33.158 34.84 33.158C34.6853 33.158 34.5306 33.1386 34.3759 33.1C32.2106 35.1106 29.7746 36.116 27.0679 36.116ZM28.5759 35.13C29.1173 35.13 29.6973 34.9366 30.3159 34.55C30.9733 34.1633 31.4759 33.796 31.8239 33.448C32.4813 32.7906 33.0806 32.0946 33.6219 31.36C34.1633 30.5866 34.6659 29.8133 35.1299 29.04C35.6713 28.112 36.2126 27.01 36.7539 25.734C37.2953 24.458 37.5659 23.2593 37.5659 22.138C37.5659 21.2486 37.2566 20.804 36.6379 20.804C36.1353 20.804 35.5166 21.0166 34.7819 21.442C34.0859 21.8673 33.564 22.254 33.216 22.602C31.9013 23.9553 30.7993 25.4246 29.9099 27.01C29.4073 27.8993 28.8659 28.9433 28.2859 30.142C27.7059 31.3406 27.4159 32.4426 27.4159 33.448C27.4159 33.6026 27.4159 33.7573 27.4159 33.912C27.4546 34.028 27.4933 34.1633 27.5319 34.318C27.6866 34.8593 28.0346 35.13 28.5759 35.13Z" fill="#724F12"/>
<path d="M23.1036 56.3C21.6342 56.3 20.2229 55.952 18.8696 55.256C17.4776 54.5986 16.4529 53.574 15.7956 52.182C15.5636 51.6793 15.4089 51.138 15.3316 50.558C15.2542 50.0166 15.2156 49.4753 15.2156 48.934V48.296C15.2156 47.9866 15.2542 47.6966 15.3316 47.426C15.4089 47.194 15.6022 47.078 15.9116 47.078C16.0276 47.078 16.0856 47.1166 16.0856 47.194C16.0856 47.426 16.0662 47.658 16.0276 47.89C15.9502 48.122 15.9116 48.3733 15.9116 48.644C15.9116 50.4226 16.4916 51.776 17.6516 52.704C18.7729 53.632 20.1842 54.096 21.8856 54.096C22.5816 54.096 23.2969 54.0186 24.0316 53.864C24.7662 53.7093 25.4622 53.4966 26.1196 53.226C28.5556 52.182 30.6822 50.7126 32.4996 48.818C34.3169 46.9233 35.9022 44.7773 37.2556 42.38C38.6089 39.9826 39.8076 37.5273 40.8516 35.014C41.9729 32.2686 43.0362 29.562 44.0416 26.894C45.0856 24.1873 46.2456 21.5386 47.5216 18.948C48.7202 16.5506 49.9962 14.7526 51.3496 13.554C52.7029 12.3553 54.0562 11.756 55.4096 11.756C55.7576 11.756 56.0862 11.8526 56.3956 12.046C56.7436 12.2393 56.8982 12.5486 56.8596 12.974L56.7436 14.598C56.7436 14.714 56.6662 14.772 56.5116 14.772C56.5116 14.772 56.4922 14.772 56.4536 14.772C56.4536 14.772 56.4536 14.7526 56.4536 14.714C56.4536 14.25 56.2796 13.9406 55.9316 13.786C55.6222 13.5926 55.3129 13.496 55.0036 13.496C53.6889 13.496 52.5096 13.96 51.4656 14.888C50.4602 15.7773 49.5709 16.9373 48.7976 18.368C48.0242 19.7986 47.3669 21.3066 46.8256 22.892C46.2842 24.4386 45.8396 25.8693 45.4916 27.184C45.7622 26.952 46.2456 26.4686 46.9416 25.734C47.6762 24.9993 48.5269 24.2066 49.4936 23.356C50.4602 22.5053 51.4462 21.7706 52.4516 21.152C53.4569 20.5333 54.3849 20.224 55.2356 20.224C55.7382 20.224 56.0282 20.456 56.1056 20.92C56.2216 21.3453 56.2409 21.7513 56.1636 22.138C55.9702 23.5686 55.4869 25.1153 54.7136 26.778C53.9402 28.4406 52.9349 30.026 51.6976 31.534C50.4989 33.0033 49.1456 34.202 47.6376 35.13C46.1682 36.058 44.6216 36.522 42.9976 36.522C42.8042 36.522 42.5336 36.5026 42.1856 36.464C41.8762 36.464 41.6829 36.4253 41.6056 36.348C40.7936 38.784 39.7496 41.278 38.4736 43.83C37.1976 46.382 35.6702 48.6826 33.8916 50.732C32.0742 52.82 29.9282 54.386 27.4536 55.43C26.1389 56.01 24.6889 56.3 23.1036 56.3ZM43.8676 35.536C44.4476 35.536 45.1049 35.304 45.8396 34.84C46.6129 34.3373 47.1929 33.8926 47.5796 33.506C48.0436 33.0806 48.5849 32.4233 49.2036 31.534C49.8609 30.606 50.4989 29.6006 51.1176 28.518C51.7749 27.4353 52.3162 26.3913 52.7416 25.386C53.1669 24.3806 53.3796 23.5686 53.3796 22.95C53.3796 22.7566 53.3409 22.5826 53.2636 22.428C53.1862 22.2733 53.0509 22.196 52.8576 22.196C52.5096 22.196 52.0456 22.4086 51.4656 22.834C50.8856 23.2593 50.2669 23.7813 49.6096 24.4C48.9909 24.98 48.4109 25.56 47.8696 26.14C47.3282 26.6813 46.9416 27.0873 46.7096 27.358C46.3229 27.822 45.8009 28.4986 45.1436 29.388C44.4862 30.2773 43.9062 31.186 43.4036 32.114C42.9009 33.0033 42.6496 33.7573 42.6496 34.376C42.6496 35.1493 43.0556 35.536 43.8676 35.536Z" fill="#724F12"/>
<path d="M64.8568 36.348C64.2768 36.348 63.7548 36.232 63.2908 36C62.8654 35.768 62.6528 35.3426 62.6528 34.724C62.6528 34.376 62.7301 33.9893 62.8848 33.564C63.2328 32.6746 63.6968 31.592 64.2768 30.316C64.8954 29.04 65.5141 27.8026 66.1328 26.604C66.7514 25.3666 67.2348 24.3613 67.5828 23.588C67.8148 23.124 67.9308 22.7953 67.9308 22.602C67.9308 22.254 67.7374 22.1766 67.3508 22.37C66.9641 22.5633 66.5388 22.834 66.0748 23.182C65.6108 23.53 65.2628 23.8006 65.0308 23.994C64.0254 24.922 62.9621 26.024 61.8408 27.3C60.7581 28.5373 59.7528 29.852 58.8248 31.244C57.9354 32.5973 57.2394 33.9506 56.7368 35.304C56.6981 35.536 56.4468 35.7293 55.9828 35.884C55.5188 36.0386 55.0934 36.116 54.7068 36.116C54.0881 36.116 53.8561 35.9226 54.0108 35.536C54.9001 33.5253 55.8088 31.302 56.7368 28.866C57.7034 26.43 58.7861 23.936 59.9848 21.384C60.8741 19.4506 61.8601 17.4593 62.9428 15.41C64.0641 13.3606 65.3014 11.408 66.6548 9.55196C68.0081 7.65729 69.4968 5.99462 71.1208 4.56395C72.5514 3.32662 74.1174 2.32129 75.8188 1.54795C77.5588 0.735955 79.4341 0.329956 81.4448 0.329956C82.3341 0.329956 83.1074 0.523289 83.7648 0.909956C84.4221 1.25796 84.7894 1.89596 84.8668 2.82396V3.34596C84.8668 3.88729 84.8088 4.42862 84.6928 4.96995C84.6541 5.12462 84.4994 5.20196 84.2288 5.20196C84.1128 5.20196 84.0741 5.18262 84.1128 5.14396C84.2674 4.13862 83.9968 3.42329 83.3008 2.99796C82.6434 2.57262 81.7928 2.35995 80.7488 2.35995C78.8541 2.35995 77.1141 2.70795 75.5288 3.40395C73.9434 4.09995 72.4741 5.02796 71.1208 6.18796C69.0328 8.00529 67.2154 10.3253 65.6688 13.148C64.1221 15.9706 62.7881 18.8513 61.6668 21.79C61.1254 23.2206 60.5841 24.6513 60.0428 26.082C59.5401 27.5126 59.0568 28.8466 58.5928 30.084C60.3328 27.764 61.9954 25.7726 63.5808 24.11C65.2048 22.4473 66.6161 21.268 67.8148 20.572C68.7814 20.0306 69.6514 19.76 70.4248 19.76C71.1594 19.76 71.5268 20.0693 71.5268 20.688C71.5268 21.2293 71.2561 21.9253 70.7148 22.776C70.4441 23.2013 70.0188 23.9166 69.4388 24.922C68.8974 25.9273 68.3174 27.0293 67.6988 28.228C67.1188 29.388 66.6161 30.4706 66.1908 31.476C65.7654 32.4813 65.5528 33.216 65.5528 33.68C65.5528 34.2986 65.8234 34.608 66.3648 34.608C66.6741 34.608 67.0221 34.5113 67.4088 34.318C67.8341 34.1246 68.1434 33.9506 68.3368 33.796C69.3808 33.0226 70.4054 32.0753 71.4108 30.954C72.4161 29.8326 73.2668 28.8466 73.9628 27.996C74.0014 27.9573 74.0208 28.0153 74.0208 28.17C74.0208 28.3246 73.9821 28.5566 73.9048 28.866C73.8661 29.1366 73.7501 29.3686 73.5568 29.562C73.1314 30.142 72.6868 30.7026 72.2228 31.244C71.7974 31.7466 71.3721 32.2493 70.9468 32.752C70.2121 33.6026 69.3228 34.4146 68.2788 35.188C67.2734 35.9613 66.1328 36.348 64.8568 36.348Z" fill="#724F12"/>
<path d="M85.3856 13.844C84.8443 13.844 84.4576 13.67 84.2256 13.322C84.0709 13.1286 83.9936 12.8773 83.9936 12.568C83.9936 11.9493 84.2836 11.4466 84.8636 11.06C85.2889 10.828 85.6756 10.712 86.0236 10.712C86.6036 10.712 87.0096 10.886 87.2416 11.234C87.3963 11.4273 87.4736 11.6786 87.4736 11.988C87.4736 12.6066 87.1643 13.1093 86.5456 13.496C86.1976 13.728 85.8109 13.844 85.3856 13.844ZM75.2936 36.174C74.9069 36.174 74.5783 36.0966 74.3076 35.942C74.0756 35.7873 73.9596 35.4973 73.9596 35.072C73.9596 34.5306 74.0949 33.8926 74.3656 33.158C74.6749 32.4233 75.0036 31.6886 75.3516 30.954C75.7383 30.2193 76.0283 29.62 76.2216 29.156C76.4923 28.6146 76.8209 27.9186 77.2076 27.068C77.6329 26.1786 78.0196 25.3473 78.3676 24.574C78.7543 23.762 79.0249 23.2013 79.1796 22.892C78.6383 23.472 77.9809 24.2066 77.2076 25.096C76.4729 25.9466 75.7769 26.778 75.1196 27.59C74.4623 28.402 73.9596 29.04 73.6116 29.504C73.4956 29.6586 73.3989 29.736 73.3216 29.736C73.2443 29.736 73.2056 29.6393 73.2056 29.446C73.2056 29.1366 73.3023 28.8466 73.4956 28.576C74.2303 27.648 75.0423 26.604 75.9316 25.444C76.8596 24.284 77.6909 23.2206 78.4256 22.254C79.1603 21.2486 79.6243 20.5913 79.8176 20.282C80.2429 20.2046 80.8616 20.0886 81.6736 19.934C82.5243 19.7793 83.1043 19.5666 83.4136 19.296C83.5296 19.18 83.6456 19.122 83.7616 19.122C83.8389 19.122 83.8776 19.1993 83.8776 19.354C83.9163 19.47 83.8776 19.6053 83.7616 19.76C83.5296 20.0306 83.1236 20.688 82.5436 21.732C81.9636 22.776 81.3449 23.936 80.6876 25.212C80.0689 26.4493 79.4889 27.5706 78.9476 28.576C78.4063 29.62 77.9423 30.6253 77.5556 31.592C77.1689 32.5586 76.9756 33.2546 76.9756 33.68C76.9756 34.2213 77.2463 34.492 77.7876 34.492C78.2903 34.492 78.9283 34.1826 79.7016 33.564C80.5136 32.9453 81.3256 32.2106 82.1376 31.36C82.9496 30.4706 83.6649 29.6586 84.2836 28.924C84.4769 28.692 84.7089 28.4213 84.9796 28.112C85.2889 27.764 85.4823 27.5513 85.5596 27.474C85.6369 27.5513 85.6756 27.6866 85.6756 27.88C85.6369 28.1506 85.5403 28.4213 85.3856 28.692C85.2309 28.924 85.0763 29.1366 84.9216 29.33C84.1096 30.3353 83.2203 31.3793 82.2536 32.462C81.2869 33.506 80.2236 34.3953 79.0636 35.13C77.9036 35.826 76.6469 36.174 75.2936 36.174Z" fill="#724F12"/>
<path d="M92.3678 36.174C91.9811 36.174 91.6525 36.0966 91.3818 35.942C91.1111 35.7873 90.9758 35.4973 90.9758 35.072C90.9758 34.5306 91.1111 33.912 91.3818 33.216C91.6525 32.52 91.9618 31.8433 92.3098 31.186C92.6578 30.49 92.9671 29.9293 93.2378 29.504C91.8845 30.9346 90.4731 32.288 89.0038 33.564C88.2691 34.1826 87.4571 34.7626 86.5678 35.304C85.6785 35.8453 84.7311 36.116 83.7258 36.116C83.3391 36.116 83.0685 36 82.9138 35.768C82.7591 35.4973 82.6818 35.188 82.6818 34.84C82.6818 34.6466 82.7011 34.5113 82.7398 34.434C82.9331 32.926 83.4165 31.36 84.1898 29.736C84.9631 28.112 85.9105 26.5846 87.0318 25.154C88.1531 23.7233 89.2938 22.5633 90.4538 21.674C91.7685 20.6686 93.2185 20.166 94.8038 20.166H101.474C101.667 20.166 101.764 20.2433 101.764 20.398C101.764 20.7073 101.59 20.862 101.242 20.862C100.855 20.862 100.468 21.1133 100.082 21.616C99.6951 22.08 99.4051 22.4666 99.2118 22.776C98.9411 23.2013 98.5158 23.9166 97.9358 24.922C97.3558 25.9273 96.7565 27.0293 96.1378 28.228C95.5578 29.388 95.0551 30.4706 94.6298 31.476C94.2045 32.4813 93.9918 33.216 93.9918 33.68C93.9918 34.2213 94.2625 34.492 94.8038 34.492C95.3838 34.492 96.0411 34.2213 96.7758 33.68C97.5105 33.1386 98.2451 32.4813 98.9798 31.708C99.7531 30.896 100.449 30.1033 101.068 29.33C101.725 28.518 102.247 27.88 102.634 27.416C102.866 27.648 102.846 27.9766 102.576 28.402C102.344 28.7886 102.131 29.098 101.938 29.33C101.164 30.3353 100.275 31.3793 99.2698 32.462C98.2645 33.506 97.1625 34.3953 95.9638 35.13C94.8038 35.826 93.6051 36.174 92.3678 36.174ZM86.1038 34.144C86.5678 34.144 87.2058 33.8153 88.0178 33.158C88.8685 32.462 89.7771 31.6113 90.7438 30.606C91.7105 29.562 92.6191 28.4793 93.4698 27.358C94.3205 26.198 95.0165 25.154 95.5578 24.226C96.1378 23.2593 96.4278 22.5246 96.4278 22.022C96.4278 21.5966 96.2925 21.3066 96.0218 21.152C95.7898 20.9973 95.4805 20.92 95.0938 20.92C94.4751 20.92 93.7985 21.152 93.0638 21.616C92.3678 22.0413 91.8071 22.4666 91.3818 22.892C90.9178 23.3173 90.3571 23.994 89.6998 24.922C89.0811 25.8113 88.4625 26.7973 87.8438 27.88C87.2251 28.9626 86.7031 30.0066 86.2778 31.012C85.8525 32.0173 85.6398 32.8293 85.6398 33.448C85.6398 33.912 85.7945 34.144 86.1038 34.144Z" fill="#724F12"/>
<path d="M114.401 37.45C113.203 37.45 112.217 37.102 111.443 36.406C110.709 35.71 110.419 34.666 110.573 33.274C110.612 32.7713 110.728 32.2493 110.921 31.708C111.153 31.128 111.405 30.5673 111.675 30.026C111.907 29.4846 112.139 29.214 112.371 29.214C112.565 29.214 112.584 29.3686 112.429 29.678C111.927 30.722 111.675 31.65 111.675 32.462C111.675 33.3126 111.965 33.9506 112.545 34.376C113.164 34.8013 113.957 35.014 114.923 35.014C116.818 35.014 118.906 34.4146 121.187 33.216C123.469 31.9786 125.827 30.4126 128.263 28.518C130.699 26.5846 133.039 24.574 135.281 22.486C133.773 22.4086 132.362 22.3313 131.047 22.254C129.733 22.1766 128.573 22.138 127.567 22.138C126.717 22.138 125.692 22.2153 124.493 22.37C123.295 22.5246 122.367 22.9306 121.709 23.588C121.439 23.8586 121.187 24.2646 120.955 24.806C120.762 25.3086 120.665 25.8306 120.665 26.372C120.665 26.5266 120.665 26.6813 120.665 26.836C120.704 26.952 120.743 27.0873 120.781 27.242C120.627 27.1646 120.337 27.1066 119.911 27.068C119.525 26.9906 119.273 26.7393 119.157 26.314C119.119 26.198 119.099 26.0046 119.099 25.734C119.099 25.1153 119.331 24.6126 119.795 24.226C120.259 23.8006 120.82 23.4333 121.477 23.124C122.135 22.8146 122.734 22.544 123.275 22.312C124.551 21.7706 125.866 21.326 127.219 20.978C128.573 20.63 129.945 20.456 131.337 20.456C132.923 20.456 134.895 20.514 137.253 20.63C139.071 18.8513 140.753 17.1693 142.299 15.584C143.846 13.9986 145.103 12.684 146.069 11.64C147.423 10.2093 148.853 8.99129 150.361 7.98596C151.908 6.94195 153.474 6.20729 155.059 5.78195H151.869C150.516 5.78195 149.047 5.83996 147.461 5.95596C145.876 6.07195 144.387 6.32329 142.995 6.70996C141.603 7.09662 140.443 7.67662 139.515 8.44995C138.935 8.95262 138.491 9.53262 138.181 10.19C137.911 10.8086 137.775 11.3886 137.775 11.93C137.775 12.6646 137.988 13.1673 138.413 13.438C138.452 13.438 138.471 13.4573 138.471 13.496C138.471 13.612 138.336 13.7473 138.065 13.902C137.795 14.018 137.601 14.0373 137.485 13.96C137.099 13.6893 136.751 13.148 136.441 12.336C136.171 11.4853 136.074 10.8086 136.151 10.306C136.345 9.10729 136.867 8.14062 137.717 7.40595C138.607 6.63262 139.689 6.03329 140.965 5.60795C142.28 5.18262 143.653 4.89262 145.083 4.73795C146.553 4.58329 147.945 4.48662 149.259 4.44796C150.613 4.40929 151.753 4.38996 152.681 4.38996H159.003C159.081 4.38996 159.1 4.40929 159.061 4.44796C160.028 4.02262 161.033 3.59729 162.077 3.17195C163.16 2.74662 164.088 2.53396 164.861 2.53396C165.055 2.53396 165.248 2.59196 165.441 2.70796C165.673 2.82396 165.789 2.93995 165.789 3.05596C165.789 3.24929 165.403 3.34596 164.629 3.34596C164.243 3.34596 163.837 3.42329 163.411 3.57796C163.025 3.69395 162.503 4.09995 161.845 4.79595C161.304 5.33729 160.627 6.20729 159.815 7.40595C159.003 8.60462 158.114 10.016 157.147 11.64C156.181 13.2253 155.214 14.9266 154.247 16.744C153.281 18.5226 152.353 20.282 151.463 22.022C150.574 23.762 149.801 25.3666 149.143 26.836C149.066 27.068 148.853 27.6093 148.505 28.46C148.157 29.272 147.829 30.1806 147.519 31.186C147.21 32.1526 147.055 33.0226 147.055 33.796C147.055 34.84 147.423 35.362 148.157 35.362C148.505 35.362 148.853 35.2846 149.201 35.13C149.704 34.9366 150.226 34.6466 150.767 34.26C151.309 33.8733 151.831 33.4286 152.333 32.926C153.339 31.9593 154.189 31.0313 154.885 30.142C155.581 29.214 156.007 28.6533 156.161 28.46C156.277 28.2666 156.413 28.17 156.567 28.17C156.722 28.17 156.799 28.2666 156.799 28.46C156.799 28.576 156.741 28.7306 156.625 28.924C156.355 29.3106 155.852 29.9873 155.117 30.954C154.383 31.882 153.513 32.8293 152.507 33.796C151.541 34.7626 150.497 35.4973 149.375 36C149.027 36.1546 148.66 36.2706 148.273 36.348C147.887 36.464 147.5 36.522 147.113 36.522C146.34 36.522 145.625 36.2513 144.967 35.71C144.349 35.1686 144.039 34.2793 144.039 33.042C144.039 31.9206 144.252 30.722 144.677 29.446C145.141 28.1313 145.567 27.068 145.953 26.256C146.727 24.5933 147.635 22.7373 148.679 20.688C149.762 18.6386 150.864 16.5893 151.985 14.54C153.145 12.4906 154.209 10.6346 155.175 8.97196C156.142 7.30929 156.935 6.07196 157.553 5.25995C156.935 5.25995 156.103 5.51129 155.059 6.01396C154.015 6.47796 152.894 7.11596 151.695 7.92796C150.535 8.70129 149.453 9.60996 148.447 10.654C147.249 11.8913 145.857 13.3993 144.271 15.178C142.725 16.9566 141.043 18.8126 139.225 20.746C140.115 20.7846 141.004 20.8233 141.893 20.862C142.783 20.862 143.672 20.862 144.561 20.862C145.18 20.862 145.857 20.804 146.591 20.688C147.365 20.5333 148.08 20.3013 148.737 19.992C148.737 19.992 148.621 20.2046 148.389 20.63C148.196 21.0166 147.848 21.4226 147.345 21.848C146.881 22.2346 146.243 22.4666 145.431 22.544C144.697 22.5826 143.962 22.6213 143.227 22.66C142.493 22.66 141.758 22.66 141.023 22.66C140.405 22.66 139.786 22.66 139.167 22.66C138.587 22.66 138.007 22.6406 137.427 22.602C135.649 24.458 133.793 26.2753 131.859 28.054C129.926 29.794 127.973 31.3793 126.001 32.81C124.029 34.2406 122.057 35.362 120.085 36.174C118.152 37.0246 116.257 37.45 114.401 37.45Z" fill="#724F12"/>
<path d="M156.195 36.87C156.04 36.87 156.04 36.696 156.195 36.348C156.388 36 156.562 35.6133 156.717 35.188C156.91 34.7626 157.104 34.2986 157.297 33.796C157.684 32.868 158.109 31.824 158.573 30.664C159.037 29.504 159.482 28.3826 159.907 27.3C160.332 26.1786 160.7 25.2313 161.009 24.458C161.357 23.646 161.589 23.124 161.705 22.892C161.164 23.472 160.506 24.2066 159.733 25.096C158.998 25.9466 158.302 26.778 157.645 27.59C156.988 28.402 156.485 29.04 156.137 29.504C156.021 29.6586 155.924 29.736 155.847 29.736C155.77 29.736 155.731 29.6393 155.731 29.446C155.731 29.1366 155.828 28.8466 156.021 28.576C156.756 27.648 157.568 26.604 158.457 25.444C159.385 24.284 160.216 23.2206 160.951 22.254C161.686 21.2486 162.15 20.5913 162.343 20.282C162.768 20.2046 163.387 20.0886 164.199 19.934C165.05 19.7793 165.63 19.5666 165.939 19.296C166.055 19.18 166.171 19.122 166.287 19.122C166.364 19.122 166.403 19.1993 166.403 19.354C166.442 19.47 166.403 19.6053 166.287 19.76C166.055 20.0306 165.649 20.6686 165.069 21.674C164.528 22.6406 163.928 23.7233 163.271 24.922C162.652 26.1206 162.072 27.2033 161.531 28.17C161.995 27.5513 162.498 26.952 163.039 26.372C163.58 25.792 164.102 25.2313 164.605 24.69C165.069 24.226 165.707 23.646 166.519 22.95C167.331 22.254 168.182 21.616 169.071 21.036C169.96 20.456 170.734 20.1273 171.391 20.05C171.546 20.0113 171.681 19.992 171.797 19.992C171.952 19.992 172.068 19.992 172.145 19.992C172.996 19.992 173.421 20.3013 173.421 20.92C173.421 21.384 173.17 22.0026 172.667 22.776C172.396 23.2013 171.971 23.9166 171.391 24.922C170.85 25.8886 170.289 26.952 169.709 28.112C169.168 29.2333 168.684 30.2966 168.259 31.302C167.872 32.2686 167.679 32.984 167.679 33.448C167.679 33.9893 167.95 34.26 168.491 34.26C169.148 34.26 169.864 33.9313 170.637 33.274C171.449 32.6166 172.319 31.7853 173.247 30.78C174.175 29.736 175.103 28.634 176.031 27.474C176.108 27.5513 176.147 27.6866 176.147 27.88C176.147 28.1506 176.05 28.4213 175.857 28.692C175.702 28.924 175.548 29.1366 175.393 29.33C175.006 29.8326 174.484 30.4706 173.827 31.244C173.208 31.9786 172.57 32.7133 171.913 33.448C171.256 34.144 170.656 34.7046 170.115 35.13C169.728 35.4006 169.226 35.6906 168.607 36C167.988 36.3093 167.37 36.464 166.751 36.464C166.055 36.464 165.572 36.29 165.301 35.942C165.03 35.5553 164.895 35.0913 164.895 34.55C164.895 33.9313 165.011 33.274 165.243 32.578C165.475 31.882 165.726 31.2246 165.997 30.606C166.306 29.9486 166.538 29.4653 166.693 29.156C167.389 27.8026 168.027 26.5266 168.607 25.328C169.187 24.1293 169.593 23.2786 169.825 22.776C169.941 22.544 169.999 22.3506 169.999 22.196C169.999 21.9253 169.786 21.906 169.361 22.138C168.936 22.37 168.414 22.718 167.795 23.182C167.215 23.646 166.674 24.11 166.171 24.574C165.668 24.9993 165.34 25.2893 165.185 25.444C163.754 26.952 162.498 28.634 161.415 30.49C160.371 32.3073 159.482 34.1826 158.747 36.116C158.244 36.1546 157.742 36.29 157.239 36.522C156.736 36.754 156.388 36.87 156.195 36.87Z" fill="#724F12"/>
<path d="M182.88 36.174C182.493 36.174 182.164 36.0966 181.894 35.942C181.623 35.7873 181.488 35.4973 181.488 35.072C181.488 34.5306 181.623 33.912 181.894 33.216C182.164 32.52 182.474 31.8433 182.822 31.186C183.17 30.49 183.479 29.9293 183.75 29.504C182.396 30.9346 180.985 32.288 179.516 33.564C178.781 34.1826 177.969 34.7626 177.08 35.304C176.19 35.8453 175.243 36.116 174.238 36.116C173.851 36.116 173.58 36 173.426 35.768C173.271 35.4973 173.194 35.188 173.194 34.84C173.194 34.6466 173.213 34.5113 173.252 34.434C173.445 32.926 173.928 31.36 174.702 29.736C175.475 28.112 176.422 26.5846 177.544 25.154C178.665 23.7233 179.806 22.5633 180.966 21.674C181.855 21.0166 182.706 20.6106 183.518 20.456C184.33 20.2626 185.219 20.166 186.186 20.166H188.1C188.718 19.122 189.356 17.962 190.014 16.686C190.71 15.3713 191.386 14.076 192.044 12.8C192.74 11.524 193.378 10.4026 193.958 9.43596C195.543 6.72929 197.283 4.56396 199.178 2.93995C201.111 1.31595 203.257 0.503954 205.616 0.503954C206.118 0.503954 206.582 0.658621 207.008 0.967955C207.433 1.23862 207.626 1.66396 207.588 2.24396L207.472 4.33196C207.472 4.37062 207.433 4.42862 207.356 4.50595C207.278 4.54462 207.22 4.56395 207.182 4.56395C207.143 4.56395 207.085 4.52529 207.008 4.44796C206.892 3.75195 206.544 3.22995 205.964 2.88195C205.384 2.49529 204.668 2.30195 203.818 2.30195C203.547 2.30195 203.238 2.32129 202.89 2.35995C202.58 2.39862 202.271 2.47595 201.962 2.59195C200.879 2.97862 199.854 3.77129 198.888 4.96995C197.921 6.12996 196.877 7.67662 195.756 9.60996C195.369 10.3446 194.866 11.3113 194.248 12.51C193.629 13.67 192.972 14.9266 192.276 16.28C191.618 17.6333 190.98 18.948 190.362 20.224C189.782 21.5 189.279 22.5826 188.854 23.472C188.66 23.936 188.332 24.6513 187.868 25.618C187.404 26.546 186.901 27.5706 186.36 28.692C185.857 29.7746 185.412 30.78 185.026 31.708C184.678 32.636 184.504 33.2933 184.504 33.68C184.504 34.2213 184.736 34.492 185.2 34.492C185.664 34.492 186.282 34.2213 187.056 33.68C187.829 33.1 188.622 32.404 189.434 31.592C190.284 30.7413 191.038 29.9293 191.696 29.156C192.392 28.3826 192.875 27.8026 193.146 27.416C193.262 27.532 193.32 27.6673 193.32 27.822C193.32 28.0926 193.204 28.3633 192.972 28.634C192.778 28.9046 192.604 29.1366 192.45 29.33C191.754 30.258 190.884 31.2633 189.84 32.346C188.834 33.39 187.732 34.2986 186.534 35.072C185.335 35.8066 184.117 36.174 182.88 36.174ZM176.616 34.144C177.08 34.144 177.718 33.8153 178.53 33.158C179.38 32.462 180.289 31.6113 181.256 30.606C182.222 29.562 183.131 28.4793 183.982 27.358C184.832 26.198 185.528 25.154 186.07 24.226C186.65 23.2593 186.94 22.5246 186.94 22.022C186.94 21.5966 186.804 21.3066 186.534 21.152C186.302 20.9973 185.992 20.92 185.606 20.92C184.987 20.92 184.31 21.152 183.576 21.616C182.88 22.0413 182.319 22.4666 181.894 22.892C181.43 23.3173 180.869 23.994 180.212 24.922C179.593 25.8113 178.974 26.7973 178.356 27.88C177.737 28.9626 177.215 30.0066 176.79 31.012C176.364 32.0173 176.152 32.8293 176.152 33.448C176.152 33.912 176.306 34.144 176.616 34.144Z" fill="#724F12"/>
<path d="M192.388 36.812C192.234 36.812 192.234 36.6573 192.388 36.348C192.582 36 192.756 35.6133 192.91 35.188C193.104 34.7626 193.297 34.2986 193.49 33.796C193.877 32.868 194.302 31.824 194.766 30.664C195.23 29.504 195.675 28.3826 196.1 27.3C196.526 26.1786 196.893 25.2313 197.202 24.458C197.55 23.646 197.782 23.124 197.898 22.892C197.357 23.472 196.7 24.2066 195.926 25.096C195.192 25.9466 194.496 26.778 193.838 27.59C193.181 28.402 192.678 29.04 192.33 29.504C192.214 29.6586 192.118 29.736 192.04 29.736C191.963 29.736 191.924 29.6393 191.924 29.446C191.924 29.1366 192.021 28.8466 192.214 28.576C192.949 27.648 193.761 26.604 194.65 25.444C195.578 24.284 196.41 23.2206 197.144 22.254C197.879 21.2486 198.343 20.5913 198.536 20.282C198.962 20.2046 199.58 20.0886 200.392 19.934C201.243 19.7793 201.823 19.5666 202.132 19.296C202.248 19.18 202.364 19.122 202.48 19.122C202.558 19.122 202.596 19.1993 202.596 19.354C202.635 19.47 202.596 19.6053 202.48 19.76C202.248 19.992 201.9 20.4946 201.436 21.268C201.011 22.0413 200.528 22.9306 199.986 23.936C199.445 24.9413 198.923 25.908 198.42 26.836C198.807 26.256 199.31 25.5793 199.928 24.806C200.586 23.994 201.301 23.2206 202.074 22.486C202.848 21.7126 203.621 21.0746 204.394 20.572C205.206 20.0693 205.96 19.818 206.656 19.818C207.159 19.818 207.584 19.934 207.932 20.166C208.28 20.3593 208.551 20.7266 208.744 21.268C208.86 21.5386 208.918 21.848 208.918 22.196C208.918 22.8533 208.744 23.4913 208.396 24.11C208.087 24.69 207.855 25.1346 207.7 25.444C207.662 25.56 207.526 25.676 207.294 25.792C207.062 25.8693 206.966 25.8306 207.004 25.676C207.043 25.4826 207.062 25.2893 207.062 25.096C207.101 24.9026 207.12 24.69 207.12 24.458C207.12 23.8006 206.985 23.2013 206.714 22.66C206.482 22.1186 206.038 21.848 205.38 21.848C204.762 21.848 204.008 22.2346 203.118 23.008C202.229 23.7813 201.34 24.6706 200.45 25.676C199.329 26.9906 198.44 28.2473 197.782 29.446C197.125 30.606 196.584 31.7466 196.158 32.868C195.926 33.4866 195.694 34.1053 195.462 34.724C195.23 35.304 195.056 35.768 194.94 36.116C194.438 36.1546 193.935 36.2706 193.432 36.464C192.93 36.696 192.582 36.812 192.388 36.812Z" fill="#724F12"/>
<path d="M211.149 36.464C209.564 36.464 208.462 36.1546 207.843 35.536C207.224 34.9173 206.915 34.1633 206.915 33.274C206.915 32.1526 207.205 30.954 207.785 29.678C208.404 28.402 208.984 27.3193 209.525 26.43C210.144 25.502 210.975 24.5353 212.019 23.53C213.063 22.5246 214.204 21.674 215.441 20.978C216.678 20.282 217.877 19.934 219.037 19.934C220.042 19.934 220.738 20.1853 221.125 20.688C221.512 21.152 221.705 21.7126 221.705 22.37C221.705 23.5686 221.338 24.5546 220.603 25.328C219.907 26.1013 219.037 26.7393 217.993 27.242C216.949 27.706 215.944 28.0926 214.977 28.402C214.397 28.5566 213.72 28.7113 212.947 28.866C212.174 29.0206 211.439 29.098 210.743 29.098C210.472 29.794 210.26 30.4706 210.105 31.128C209.95 31.7853 209.873 32.3846 209.873 32.926C209.873 33.5833 210.028 34.1246 210.337 34.55C210.685 34.9753 211.246 35.188 212.019 35.188C212.328 35.188 212.696 35.1493 213.121 35.072C213.546 34.9946 214.01 34.8786 214.513 34.724C215.673 34.3373 216.814 33.7186 217.935 32.868C219.056 32.0173 220.081 31.1086 221.009 30.142C221.976 29.1366 222.71 28.3053 223.213 27.648C223.329 27.764 223.387 27.8993 223.387 28.054C223.387 28.2473 223.252 28.5566 222.981 28.982C222.208 30.0646 221.202 31.186 219.965 32.346C218.728 33.506 217.355 34.492 215.847 35.304C214.339 36.0773 212.773 36.464 211.149 36.464ZM211.207 27.938C211.71 27.9766 212.27 27.9766 212.889 27.938C213.546 27.8606 214.184 27.7253 214.803 27.532C216.388 27.068 217.529 26.3333 218.225 25.328C218.96 24.284 219.327 23.356 219.327 22.544C219.327 22.08 219.23 21.6933 219.037 21.384C218.844 21.0746 218.534 20.92 218.109 20.92C216.988 20.92 215.982 21.3453 215.093 22.196C214.204 23.008 213.43 23.9553 212.773 25.038C212.116 26.1206 211.594 27.0873 211.207 27.938Z" fill="#724F12"/>
<path d="M225.592 36.464C224.007 36.464 222.905 36.1546 222.286 35.536C221.668 34.9173 221.358 34.1633 221.358 33.274C221.358 32.1526 221.648 30.954 222.228 29.678C222.847 28.402 223.427 27.3193 223.968 26.43C224.587 25.502 225.418 24.5353 226.462 23.53C227.506 22.5246 228.647 21.674 229.884 20.978C231.122 20.282 232.32 19.934 233.48 19.934C234.486 19.934 235.182 20.1853 235.568 20.688C235.955 21.152 236.148 21.7126 236.148 22.37C236.148 23.5686 235.781 24.5546 235.046 25.328C234.35 26.1013 233.48 26.7393 232.436 27.242C231.392 27.706 230.387 28.0926 229.42 28.402C228.84 28.5566 228.164 28.7113 227.39 28.866C226.617 29.0206 225.882 29.098 225.186 29.098C224.916 29.794 224.703 30.4706 224.548 31.128C224.394 31.7853 224.316 32.3846 224.316 32.926C224.316 33.5833 224.471 34.1246 224.78 34.55C225.128 34.9753 225.689 35.188 226.462 35.188C226.772 35.188 227.139 35.1493 227.564 35.072C227.99 34.9946 228.454 34.8786 228.956 34.724C230.116 34.3373 231.257 33.7186 232.378 32.868C233.5 32.0173 234.524 31.1086 235.452 30.142C236.419 29.1366 237.154 28.3053 237.656 27.648C237.772 27.764 237.83 27.8993 237.83 28.054C237.83 28.2473 237.695 28.5566 237.424 28.982C236.651 30.0646 235.646 31.186 234.408 32.346C233.171 33.506 231.798 34.492 230.29 35.304C228.782 36.0773 227.216 36.464 225.592 36.464ZM225.65 27.938C226.153 27.9766 226.714 27.9766 227.332 27.938C227.99 27.8606 228.628 27.7253 229.246 27.532C230.832 27.068 231.972 26.3333 232.668 25.328C233.403 24.284 233.77 23.356 233.77 22.544C233.77 22.08 233.674 21.6933 233.48 21.384C233.287 21.0746 232.978 20.92 232.552 20.92C231.431 20.92 230.426 21.3453 229.536 22.196C228.647 23.008 227.874 23.9553 227.216 25.038C226.559 26.1206 226.037 27.0873 225.65 27.938Z" fill="#724F12"/>
<path d="M241.486 36.348C240.944 36.348 240.48 36.1546 240.094 35.768C239.707 35.3813 239.514 34.7046 239.514 33.738C239.514 32.8873 239.572 31.882 239.688 30.722C239.842 29.562 240.055 28.3826 240.326 27.184C240.596 25.9466 240.906 24.864 241.254 23.936C240.596 24.9026 239.862 25.908 239.05 26.952C238.238 27.9573 237.561 28.808 237.02 29.504C236.904 29.6586 236.807 29.736 236.73 29.736C236.652 29.736 236.614 29.6393 236.614 29.446C236.614 29.1366 236.71 28.8466 236.904 28.576C237.716 27.4546 238.624 26.1786 239.63 24.748C240.674 23.3173 241.563 22.022 242.298 20.862C242.723 20.7846 243.226 20.6686 243.806 20.514C244.424 20.3593 244.869 20.1466 245.14 19.876C245.333 19.76 245.449 19.702 245.488 19.702C245.604 19.702 245.662 19.7793 245.662 19.934C245.662 20.05 245.604 20.1853 245.488 20.34C245.14 20.8426 244.753 21.616 244.328 22.66C243.941 23.704 243.535 24.864 243.11 26.14C242.723 27.416 242.394 28.6726 242.124 29.91C241.892 31.1086 241.776 32.1333 241.776 32.984C241.776 33.6026 241.872 34.0473 242.066 34.318C242.259 34.55 242.51 34.666 242.82 34.666C243.245 34.666 243.748 34.4533 244.328 34.028C244.946 33.6026 245.468 33.158 245.894 32.694C246.435 32.114 247.034 31.3406 247.692 30.374C248.388 29.4073 249.026 28.3826 249.606 27.3C250.224 26.2173 250.688 25.2313 250.998 24.342C251.23 23.7233 251.384 23.2013 251.462 22.776C251.539 22.312 251.578 21.9446 251.578 21.674C251.578 21.21 251.52 20.8813 251.404 20.688C251.288 20.4946 251.191 20.3786 251.114 20.34C250.882 20.2626 250.766 20.166 250.766 20.05C250.766 19.9726 250.843 19.9146 250.998 19.876C251.152 19.7986 251.307 19.7986 251.462 19.876C251.964 20.0306 252.467 20.2626 252.97 20.572C253.472 20.8426 253.724 21.384 253.724 22.196C253.724 22.3893 253.704 22.6213 253.666 22.892C253.627 23.124 253.55 23.3946 253.434 23.704C253.202 24.3226 252.718 25.1926 251.984 26.314C251.288 27.4353 250.476 28.6146 249.548 29.852C248.62 31.0893 247.692 32.2106 246.764 33.216C245.836 34.2213 245.024 34.9366 244.328 35.362C243.864 35.6326 243.38 35.8646 242.878 36.058C242.375 36.2513 241.911 36.348 241.486 36.348Z" fill="#724F12"/>
<path d="M261.667 36.174C261.28 36.174 260.951 36.0966 260.681 35.942C260.41 35.7873 260.275 35.4973 260.275 35.072C260.275 34.5306 260.41 33.912 260.681 33.216C260.951 32.52 261.261 31.8433 261.609 31.186C261.957 30.49 262.266 29.9293 262.537 29.504C261.183 30.9346 259.772 32.288 258.303 33.564C257.568 34.1826 256.756 34.7626 255.867 35.304C254.977 35.8453 254.03 36.116 253.025 36.116C252.638 36.116 252.367 36 252.213 35.768C252.058 35.4973 251.981 35.188 251.981 34.84C251.981 34.6466 252 34.5113 252.039 34.434C252.232 32.926 252.715 31.36 253.489 29.736C254.262 28.112 255.209 26.5846 256.331 25.154C257.452 23.7233 258.593 22.5633 259.753 21.674C261.067 20.6686 262.517 20.166 264.103 20.166H270.773C270.966 20.166 271.063 20.2433 271.063 20.398C271.063 20.7073 270.889 20.862 270.541 20.862C270.154 20.862 269.767 21.1133 269.381 21.616C268.994 22.08 268.704 22.4666 268.511 22.776C268.24 23.2013 267.815 23.9166 267.235 24.922C266.655 25.9273 266.055 27.0293 265.437 28.228C264.857 29.388 264.354 30.4706 263.929 31.476C263.503 32.4813 263.291 33.216 263.291 33.68C263.291 34.2213 263.561 34.492 264.103 34.492C264.683 34.492 265.34 34.2213 266.075 33.68C266.809 33.1386 267.544 32.4813 268.279 31.708C269.052 30.896 269.748 30.1033 270.367 29.33C271.024 28.518 271.546 27.88 271.933 27.416C272.165 27.648 272.145 27.9766 271.875 28.402C271.643 28.7886 271.43 29.098 271.237 29.33C270.463 30.3353 269.574 31.3793 268.569 32.462C267.563 33.506 266.461 34.3953 265.263 35.13C264.103 35.826 262.904 36.174 261.667 36.174ZM255.403 34.144C255.867 34.144 256.505 33.8153 257.317 33.158C258.167 32.462 259.076 31.6113 260.043 30.606C261.009 29.562 261.918 28.4793 262.769 27.358C263.619 26.198 264.315 25.154 264.857 24.226C265.437 23.2593 265.727 22.5246 265.727 22.022C265.727 21.5966 265.591 21.3066 265.321 21.152C265.089 20.9973 264.779 20.92 264.393 20.92C263.774 20.92 263.097 21.152 262.363 21.616C261.667 22.0413 261.106 22.4666 260.681 22.892C260.217 23.3173 259.656 23.994 258.999 24.922C258.38 25.8113 257.761 26.7973 257.143 27.88C256.524 28.9626 256.002 30.0066 255.577 31.012C255.151 32.0173 254.939 32.8293 254.939 33.448C254.939 33.912 255.093 34.144 255.403 34.144Z" fill="#724F12"/>
</svg>
